<svg viewBox="0 0 100 100" xmlns="http://www.w3.org/2000/svg" role="img" aria-label="Euodia logo">
  <circle cx="50" cy="50" r="46" fill="none" stroke="#C7A06C" stroke-width="0.8" opacity="0.6"/>
  <!-- Lily petals -->
  <ellipse cx="80" cy="50" rx="8" ry="14" fill="#C7A06C" opacity="0.25" transform="rotate(90, 80, 50)"/>
  <ellipse cx="65" cy="24" rx="8" ry="14" fill="#C7A06C" opacity="0.25" transform="rotate(30, 65, 24)"/>
  <ellipse cx="35" cy="24" rx="8" ry="14" fill="#C7A06C" opacity="0.25" transform="rotate(-30, 35, 24)"/>
  <ellipse cx="20" cy="50" rx="8" ry="14" fill="#C7A06C" opacity="0.25" transform="rotate(90, 20, 50)"/>
  <ellipse cx="35" cy="76" rx="8" ry="14" fill="#C7A06C" opacity="0.25" transform="rotate(30, 35, 76)"/>
  <ellipse cx="65" cy="76" rx="8" ry="14" fill="#C7A06C" opacity="0.25" transform="rotate(-30, 65, 76)"/>
  <!-- Inner circle -->
  <circle cx="50" cy="50" r="20" fill="#C7A06C" opacity="0.12"/>
  <circle cx="50" cy="50" r="20" fill="none" stroke="#C7A06C" stroke-width="0.6" opacity="0.5"/>
  <!-- Chi (X) -->
  <line x1="39" y1="39" x2="61" y2="61" stroke="#C7A06C" stroke-width="2.2" stroke-linecap="round"/>
  <line x1="61" y1="39" x2="39" y2="61" stroke="#C7A06C" stroke-width="2.2" stroke-linecap="round"/>
  <!-- Rho (P) -->
  <line x1="50" y1="35" x2="50" y2="65" stroke="#C7A06C" stroke-width="2.2" stroke-linecap="round"/>
  <path d="M50 35 Q60 35 60 43 Q60 51 50 51" fill="none" stroke="#C7A06C" stroke-width="2.2" stroke-linecap="round"/>
</svg>
